# xmcd CD database file
#
# Track frame offsets:
#	150
#	3072
#	19656
#	34895
#	49872
#	64188
#	82302
#	98857
#	114347
#	135052
#	153768
#	171539
#
# Disc length: 2484 seconds
#
# Revision: 0
# Processed by: cddbd v1.5.2PL0 Copyright (c) Steve Scherf et al.
# Submitted via: Feurio! 1.68 - http://www.feurio.com
#
DISCID=8e09b20c
DTITLE=Josh Turner - Punching Bag
DYEAR=2012
DGENRE=Country
TTITLE0=Introduction by Michael Buffer
TTITLE1=Punching Bag
TTITLE2=Time Is Love
TTITLE3=Deeper Than My Love
TTITLE4=Good Problem
TTITLE5=Cold Shoulder
TTITLE6=Find Me A Baby
TTITLE7=Whatcha Reckon
TTITLE8=Pallbearer
TTITLE9=For The Love Of God
TTITLE10=I Was There
TTITLE11=Left Hand Man
EXTD=
EXTT0=
EXTT1=
EXTT2=
EXTT3=
EXTT4=
EXTT5=
EXTT6=
EXTT7=
EXTT8=
EXTT9=
EXTT10=
EXTT11=
PLAYORDER=
